<?xml version="1.0" standalone="no"?>
<!DOCTYPE svg PUBLIC "-//W3C//DTD SVG 20010904//EN"
 "http://www.w3.org/TR/2001/REC-SVG-20010904/DTD/svg10.dtd">
<svg version="1.0" xmlns="http://www.w3.org/2000/svg"
 width="755.000000pt" height="755.000000pt" viewBox="0 0 755.000000 755.000000"
 preserveAspectRatio="xMidYMid meet">
<metadata>
Created by potrace 1.11, written by Peter Selinger 2001-2013
</metadata>
<g transform="translate(0.000000,755.000000) scale(0.100000,-0.100000)"
fill="#000000" stroke="none">
<path d="M3488 7210 c-595 -57 -1141 -248 -1613 -562 -770 -514 -1300 -1301
-1479 -2198 -52 -261 -60 -354 -60 -685 0 -323 8 -422 55 -659 179 -905 704
-1706 1454 -2218 453 -309 956 -499 1520 -575 183 -24 647 -24 830 0 740 99
1369 392 1920 894 471 429 850 1067 1009 1698 82 327 100 486 100 870 0 281
-3 337 -23 465 -68 444 -203 848 -402 1204 -458 822 -1236 1427 -2134 1661
-309 81 -493 105 -830 110 -143 2 -299 0 -347 -5z m1969 -2215 c351 -46 622
-183 822 -413 l50 -59 -257 -230 -258 -230 -90 86 c-100 97 -193 152 -295 176
-82 19 -239 19 -312 0 -192 -50 -338 -202 -388 -405 -20 -80 -18 -299 3 -377
75 -273 290 -426 578 -410 164 9 288 67 419 195 83 81 85 82 105 64 309 -273
486 -436 486 -446 0 -21 -167 -183 -249 -240 -254 -178 -591 -261 -961 -235
-745 52 -1261 608 -1227 1324 17 350 138 621 380 853 208 198 486 321 807 355
90 10 280 6 387 -8z m-2642 -58 c258 -44 419 -115 582 -257 209 -183 310 -494
259 -800 -40 -249 -188 -464 -397 -582 -22 -12 -39 -26 -39 -30 0 -5 109 -170
243 -365 133 -196 246 -363 250 -370 7 -11 -70 -13 -431 -13 l-438 0 -205 305
-204 304 -112 1 -113 0 0 -305 0 -305 -410 0 -410 0 0 1221 0 1221 668 -5
c536 -4 685 -7 757 -20z"/>
<path d="M2210 4035 l0 -288 203 5 c226 6 287 20 347 80 58 58 75 103 75 203
0 76 -4 97 -25 138 -27 55 -73 95 -140 122 -38 16 -78 20 -252 23 l-208 4 0
-287z"/>
</g>
</svg>
